<?xml version="1.0" encoding="utf-8"?>
<!-- Generator: Adobe Illustrator 23.1.0, SVG Export Plug-In . SVG Version: 6.00 Build 0)  -->
<svg version="1.1" id="Layer_1" xmlns="http://www.w3.org/2000/svg" xmlns:xlink="http://www.w3.org/1999/xlink" x="0px" y="0px"
	 viewBox="0 0 3058.1 1774.3" style="enable-background:new 0 0 3058.1 1774.3;" xml:space="preserve">
<style type="text/css">
	.st0{fill:#E41E27;}
	.st1{fill:#231F20;}
</style>
<g>
	<path class="st0" d="M772.1,951.6c-0.6-0.5-1.2-1-1.9-1.7c-6.5-5.7-63.4-46.4-74.7-54.5l-0.4-0.3c-6.9-4.5-12.9-3.6-15.9-2.6
		c-4.9,1.6-8.7,5.4-10.6,10.5c-4,11.1,5.4,18.4,9.4,21.6c0.5,0.4,1,0.8,1.4,1.1c42.9,34.9,43.3,54.4,43.1,57.1
		c-55.6,134-144.7,225.3-154.8,235.4c-4.5,4.5-6.7,9.3-6.5,14.4c0.2,7.3,5,11.5,7.1,13.3c3,2.7,6.8,4.1,10.8,4.1c0.4,0,0.8,0,1.2,0
		c6.4-0.4,11.1-4.5,13.1-6.6c75-67.1,137.9-158,181.8-263.1c0.8-1.9,1.4-3.3,1.8-4.2C781.1,966.7,781.7,959.6,772.1,951.6z"/>
	<path class="st0" d="M564.1,1004.4l-0.3-1c-4.1-13.1-14.5-37.5-18.8-42.8c-0.8-1-3-3.8-45.3-40.3c-5.2-4.5-11.8-5.6-17.6-3
		c-7.6,3.5-10.3,11.9-10.3,16.7c0,5.3,1.8,7.6,10.7,18.8c5.8,7.3,14.5,18.2,24,31.6c18.8,26.2,34.6,38.5,35.3,39l1.7,1.3l2.1,0.7
		c1.5,0.5,3,0.7,4.6,0.7c3.5,0,7-1.3,9.7-3.7C564.5,1018.4,565.9,1012.3,564.1,1004.4z"/>
	<path class="st0" d="M573,659.9c20.9,76.2,65.4,166.4,161,212.4c5.8-10.4,16.3-22.8,27.9-31.3c-144-65.8-167.9-233.3-172.2-291.8
		l1.2-14.3c5.8-1.2,9.3-3.1,9.7-7l-50.7-3.9c-2.7,51.9-0.4,235.7-159,319.3c12.4,8.5,24,19.3,30.6,28.6
		C513.4,818.9,554.4,733.4,573,659.9z"/>
	<g>
		<path class="st1" d="M1040.4,680.6c-55.9,0-115.6,22-115.6,75.4c0,47.7,54.7,61.6,119.4,72.2c87.9,13.8,174.6,31.4,174.6,130.7
			c-0.6,98.6-94.9,130.7-179,130.7c-77.9,0-152-28.3-185.9-101.8l45.2-26.4c28.3,52.1,87.3,77.3,141.3,77.3
			c53.4,0,124.4-17,124.4-81.7c0.6-54.7-60.9-70.4-126.9-80.4c-84.8-13.2-167.1-32.7-167.1-121.9c-1.3-91.7,92.3-123.1,168.4-123.1
			c65.3,0,127.5,13.2,166.5,79.8l-41.5,25.8C1140.2,698.8,1089.4,681.2,1040.4,680.6z"/>
		<path class="st1" d="M1434.9,763.5c94.9,0,161.5,66.6,161.5,162.7c0,94.2-67.8,160.2-161.5,160.2c-93,0-160.8-66-160.8-160.2
			C1274,830.1,1342.5,763.5,1434.9,763.5z M1435.5,810.6c-63.4,0-109.9,46.5-109.9,115.6c0,65.3,45.9,111.8,109.3,111.8
			c64.1,0,109.9-46.5,110.6-111.8C1545.4,857.1,1497.7,810.6,1435.5,810.6z"/>
		<path class="st1" d="M1869.6,839.5c-27-24.5-55.3-30.2-87.3-30.2c-42.7-0.6-77.3,14.5-76.6,45.2c0.6,32,38.3,41.5,77.3,45.9
			c56.5,6.9,131.9,18.2,130.7,94.9c-1.3,62.2-60.3,93-130,93c-52.1,0-103.7-14.5-138.8-58.4l29.5-35.8
			c27.6,33.9,72.2,47.7,110.6,47.7c33.9,0,77.3-10.7,78.5-48.4c0.6-33.9-35.8-44-83.6-49.6c-59.7-7.5-123.8-23.2-123.8-89.2
			c-0.6-66,66-91.7,125.6-91.1c46.5,0,84.8,11.3,118.1,41.5l-29.5,33.9L1869.6,839.5z"/>
		<path class="st1" d="M2239,1082l-1.3-56.5c-24.5,42.7-71.6,62.8-114.3,62.8c-89.2,0-158.9-61.6-158.9-162.7
			c0-100.5,71-160.8,159.6-160.2c46.5,0,92.3,21.4,115,61.6l0.6-56.5h50.3v310.3h-49.6L2239,1082z M2125.9,814.4
			c-61.6,0-111.2,44-111.2,113.1s49.6,113.7,111.2,113.7c149.5,0,149.5-227.4,0.6-227.4L2125.9,814.4z"/>
		<path class="st1" d="M2471.4,1227.1h-55.3l64.7-150.8l-125-305.9h58.4l60.9,161.5l33.9,88.6l33.3-87.9l68.5-162.1h56.5
			L2471.4,1227.1z"/>
	</g>
</g>
</svg>
